<svg width="828" height="1061" viewBox="0 0 828 1061" xmlns="http://www.w3.org/2000/svg">
<style>
svg {
    font-family: SFMono-Regular,Consolas,Liberation Mono,Menlo,monospace;
    font-size: 14px;
    font-kerning: normal;
    text-rendering: optimizeLegibility;
}
rect {
    fill: #F9F9FC;
}
text {
    fill: #403d39;
    text-anchor: middle;
    dominant-baseline: middle;
}
.hold {
    fill: #D7ECFE;
}
.layer {
    fill: #403d39;
    text-anchor: start;
    dominant-baseline: hanging;
    font-weight: bold;
    font-size: 18px;
}
</style>
<text x="32" y="25" class="layer">qwerty</text>
 <rect x="32" y="45" width="60" height="50" rx="5" ry="5" />
 <text x="62" y="70">tab</text>
 <rect x="96" y="45" width="60" height="50" rx="5" ry="5" />
 <text x="126" y="70">q</text>
 <rect x="160" y="45" width="60" height="50" rx="5" ry="5" />
 <text x="190" y="70">w</text>
 <rect x="224" y="45" width="60" height="50" rx="5" ry="5" />
 <text x="254" y="70">e</text>
 <rect x="288" y="45" width="60" height="50" rx="5" ry="5" />
 <text x="318" y="70">r</text>
 <rect x="352" y="45" width="60" height="50" rx="5" ry="5" />
 <text x="382" y="70">t</text>
 <rect x="416" y="45" width="60" height="50" rx="5" ry="5" />
 <text x="446" y="70">y</text>
 <rect x="480" y="45" width="60" height="50" rx="5" ry="5" />
 <text x="510" y="70">u</text>
 <rect x="544" y="45" width="60" height="50" rx="5" ry="5" />
 <text x="574" y="70">i</text>
 <rect x="608" y="45" width="60" height="50" rx="5" ry="5" />
 <text x="638" y="70">o</text>
 <rect x="672" y="45" width="60" height="50" rx="5" ry="5" />
 <text x="702" y="70">p</text>
 <rect x="736" y="45" width="60" height="50" rx="5" ry="5" />
 <text x="766" y="70">bksp</text>
 <rect x="32" y="99" width="60" height="50" rx="5" ry="5" />
 <text x="62" y="124">esc</text>
 <rect x="96" y="99" width="60" height="50" rx="5" ry="5" />
 <text x="126" y="124">a</text>
 <rect x="160" y="99" width="60" height="50" rx="5" ry="5" />
 <text x="190" y="124">s</text>
 <rect x="224" y="99" width="60" height="50" rx="5" ry="5" />
 <text x="254" y="124">d</text>
 <rect x="288" y="99" width="60" height="50" rx="5" ry="5" />
 <text x="318" y="124">f</text>
 <rect x="352" y="99" width="60" height="50" rx="5" ry="5" />
 <text x="382" y="124">g</text>
 <rect x="416" y="99" width="60" height="50" rx="5" ry="5" />
 <text x="446" y="124">h</text>
 <rect x="480" y="99" width="60" height="50" rx="5" ry="5" />
 <text x="510" y="124">j</text>
 <rect x="544" y="99" width="60" height="50" rx="5" ry="5" />
 <text x="574" y="124">k</text>
 <rect x="608" y="99" width="60" height="50" rx="5" ry="5" />
 <text x="638" y="124">l</text>
 <rect x="672" y="99" width="60" height="50" rx="5" ry="5" />
 <text x="702" y="124">;</text>
 <rect x="736" y="99" width="60" height="50" rx="5" ry="5" />
 <text x="766" y="124">&#39;</text>
 <rect x="32" y="153" width="60" height="50" rx="5" ry="5" />
 <text x="62" y="178">shift</text>
 <rect x="96" y="153" width="60" height="50" rx="5" ry="5" />
 <text x="126" y="178">z</text>
 <rect x="160" y="153" width="60" height="50" rx="5" ry="5" />
 <text x="190" y="178">x</text>
 <rect x="224" y="153" width="60" height="50" rx="5" ry="5" />
 <text x="254" y="178">c</text>
 <rect x="288" y="153" width="60" height="50" rx="5" ry="5" />
 <text x="318" y="178">v</text>
 <rect x="352" y="153" width="60" height="50" rx="5" ry="5" />
 <text x="382" y="178">b</text>
 <rect x="416" y="153" width="60" height="50" rx="5" ry="5" />
 <text x="446" y="178">n</text>
 <rect x="480" y="153" width="60" height="50" rx="5" ry="5" />
 <text x="510" y="178">m</text>
 <rect x="544" y="153" width="60" height="50" rx="5" ry="5" />
 <text x="574" y="178">,</text>
 <rect x="608" y="153" width="60" height="50" rx="5" ry="5" />
 <text x="638" y="178">.</text>
 <rect x="672" y="153" width="60" height="50" rx="5" ry="5" />
 <text x="702" y="178">up</text>
 <rect x="736" y="153" width="60" height="50" rx="5" ry="5" />
 <text x="766" y="178">enter</text>
 <rect x="32" y="207" width="60" height="50" rx="5" ry="5" />
 <text x="62" y="232">fn</text>
 <rect x="96" y="207" width="60" height="50" rx="5" ry="5" />
 <text x="126" y="232">ctrl</text>
 <rect x="160" y="207" width="60" height="50" rx="5" ry="5" />
 <text x="190" y="232">alt</text>
 <rect x="224" y="207" width="60" height="50" rx="5" ry="5" />
 <text x="254" y="232">gui</text>
 <rect x="288" y="207" width="60" height="50" rx="5" ry="5" />
 <text x="318" y="232">lower</text>
 <rect x="352" y="207" width="124" height="50" rx="5" ry="5" />
 <text x="414" y="232"></text>
 <rect x="480" y="207" width="60" height="50" rx="5" ry="5" />
 <text x="510" y="232">raise</text>
 <rect x="544" y="207" width="60" height="50" rx="5" ry="5" />
 <text x="574" y="232">/</text>
 <rect x="608" y="207" width="60" height="50" rx="5" ry="5" />
 <text x="638" y="232">left</text>
 <rect x="672" y="207" width="60" height="50" rx="5" ry="5" />
 <text x="702" y="232">down</text>
 <rect x="736" y="207" width="60" height="50" rx="5" ry="5" />
 <text x="766" y="232">right</text>
 
 <text x="32" y="284" class="layer">lower</text>
 <rect x="32" y="304" width="60" height="50" rx="5" ry="5" />
 <text x="62" y="329">~</text>
 <rect x="96" y="304" width="60" height="50" rx="5" ry="5" />
 <text x="126" y="329">!</text>
 <rect x="160" y="304" width="60" height="50" rx="5" ry="5" />
 <text x="190" y="329">@</text>
 <rect x="224" y="304" width="60" height="50" rx="5" ry="5" />
 <text x="254" y="329">#</text>
 <rect x="288" y="304" width="60" height="50" rx="5" ry="5" />
 <text x="318" y="329">$</text>
 <rect x="352" y="304" width="60" height="50" rx="5" ry="5" />
 <text x="382" y="329">%</text>
 <rect x="416" y="304" width="60" height="50" rx="5" ry="5" />
 <text x="446" y="329">^</text>
 <rect x="480" y="304" width="60" height="50" rx="5" ry="5" />
 <text x="510" y="329">&amp;</text>
 <rect x="544" y="304" width="60" height="50" rx="5" ry="5" />
 <text x="574" y="329">*</text>
 <rect x="608" y="304" width="60" height="50" rx="5" ry="5" />
 <text x="638" y="329">(</text>
 <rect x="672" y="304" width="60" height="50" rx="5" ry="5" />
 <text x="702" y="329">)</text>
 <rect x="736" y="304" width="60" height="50" rx="5" ry="5" />
 <text x="766" y="329">bksp</text>
 <rect x="32" y="358" width="60" height="50" rx="5" ry="5" />
 <text x="62" y="383">esc</text>
 <rect x="96" y="358" width="60" height="50" rx="5" ry="5" />
 <text x="126" y="383">f1</text>
 <rect x="160" y="358" width="60" height="50" rx="5" ry="5" />
 <text x="190" y="383">f2</text>
 <rect x="224" y="358" width="60" height="50" rx="5" ry="5" />
 <text x="254" y="383">f3</text>
 <rect x="288" y="358" width="60" height="50" rx="5" ry="5" />
 <text x="318" y="383">f4</text>
 <rect x="352" y="358" width="60" height="50" rx="5" ry="5" />
 <text x="382" y="383">f5</text>
 <rect x="416" y="358" width="60" height="50" rx="5" ry="5" />
 <text x="446" y="383">f6</text>
 <rect x="480" y="358" width="60" height="50" rx="5" ry="5" />
 <text x="510" y="383">_</text>
 <rect x="544" y="358" width="60" height="50" rx="5" ry="5" />
 <text x="574" y="383">+</text>
 <rect x="608" y="358" width="60" height="50" rx="5" ry="5" />
 <text x="638" y="383">{</text>
 <rect x="672" y="358" width="60" height="50" rx="5" ry="5" />
 <text x="702" y="383">}</text>
 <rect x="736" y="358" width="60" height="50" rx="5" ry="5" />
 <text x="766" y="383">&#180;</text>
 <rect x="32" y="412" width="60" height="50" rx="5" ry="5" />
 <text x="62" y="437">shift</text>
 <rect x="96" y="412" width="60" height="50" rx="5" ry="5" />
 <text x="126" y="437">f7</text>
 <rect x="160" y="412" width="60" height="50" rx="5" ry="5" />
 <text x="190" y="437">f8</text>
 <rect x="224" y="412" width="60" height="50" rx="5" ry="5" />
 <text x="254" y="437">f9</text>
 <rect x="288" y="412" width="60" height="50" rx="5" ry="5" />
 <text x="318" y="437">f10</text>
 <rect x="352" y="412" width="60" height="50" rx="5" ry="5" />
 <text x="382" y="437">f11</text>
 <rect x="416" y="412" width="60" height="50" rx="5" ry="5" />
 <text x="446" y="437">f12</text>
 <rect x="480" y="412" width="60" height="50" rx="5" ry="5" />
 <text x="510" y="437">-</text>
 <rect x="544" y="412" width="60" height="50" rx="5" ry="5" />
 <text x="574" y="437">=</text>
 <rect x="608" y="412" width="60" height="50" rx="5" ry="5" />
 <text x="638" y="437">[</text>
 <rect x="672" y="412" width="60" height="50" rx="5" ry="5" />
 <text x="702" y="437">]</text>
 <rect x="736" y="412" width="60" height="50" rx="5" ry="5" />
 <text x="766" y="437">enter</text>
 <rect x="32" y="466" width="60" height="50" rx="5" ry="5" />
 <text x="62" y="491">fn</text>
 <rect x="96" y="466" width="60" height="50" rx="5" ry="5" />
 <text x="126" y="491">ctrl</text>
 <rect x="160" y="466" width="60" height="50" rx="5" ry="5" />
 <text x="190" y="491">alt</text>
 <rect x="224" y="466" width="60" height="50" rx="5" ry="5" />
 <text x="254" y="491">gui</text>
 <rect x="288" y="466" width="60" height="50" class="hold" rx="5" ry="5" />
 <text x="318" y="491">lower</text>
 <rect x="352" y="466" width="124" height="50" rx="5" ry="5" />
 <text x="414" y="491"></text>
 <rect x="480" y="466" width="60" height="50" rx="5" ry="5" />
 <text x="510" y="491">raise</text>
 <rect x="544" y="466" width="60" height="50" rx="5" ry="5" />
 <text x="574" y="491">\</text>
 <rect x="608" y="466" width="60" height="50" rx="5" ry="5" />
 <text x="638" y="491">|</text>
 <rect x="672" y="466" width="60" height="50" rx="5" ry="5" />
 <text x="702" y="491"></text>
 <rect x="736" y="466" width="60" height="50" rx="5" ry="5" />
 <text x="766" y="491"></text>
 
 <text x="32" y="543" class="layer">raise</text>
 <rect x="32" y="563" width="60" height="50" rx="5" ry="5" />
 <text x="62" y="588">`</text>
 <rect x="96" y="563" width="60" height="50" rx="5" ry="5" />
 <text x="126" y="588">1</text>
 <rect x="160" y="563" width="60" height="50" rx="5" ry="5" />
 <text x="190" y="588">2</text>
 <rect x="224" y="563" width="60" height="50" rx="5" ry="5" />
 <text x="254" y="588">3</text>
 <rect x="288" y="563" width="60" height="50" rx="5" ry="5" />
 <text x="318" y="588">4</text>
 <rect x="352" y="563" width="60" height="50" rx="5" ry="5" />
 <text x="382" y="588">5</text>
 <rect x="416" y="563" width="60" height="50" rx="5" ry="5" />
 <text x="446" y="588">6</text>
 <rect x="480" y="563" width="60" height="50" rx="5" ry="5" />
 <text x="510" y="588">7</text>
 <rect x="544" y="563" width="60" height="50" rx="5" ry="5" />
 <text x="574" y="588">8</text>
 <rect x="608" y="563" width="60" height="50" rx="5" ry="5" />
 <text x="638" y="588">9</text>
 <rect x="672" y="563" width="60" height="50" rx="5" ry="5" />
 <text x="702" y="588">0</text>
 <rect x="736" y="563" width="60" height="50" rx="5" ry="5" />
 <text x="766" y="588">bksp</text>
 <rect x="32" y="617" width="60" height="50" rx="5" ry="5" />
 <text x="62" y="642">esc</text>
 <rect x="96" y="617" width="60" height="50" rx="5" ry="5" />
 <text x="126" y="642">f1</text>
 <rect x="160" y="617" width="60" height="50" rx="5" ry="5" />
 <text x="190" y="642">f2</text>
 <rect x="224" y="617" width="60" height="50" rx="5" ry="5" />
 <text x="254" y="642">f3</text>
 <rect x="288" y="617" width="60" height="50" rx="5" ry="5" />
 <text x="318" y="642">f4</text>
 <rect x="352" y="617" width="60" height="50" rx="5" ry="5" />
 <text x="382" y="642">f5</text>
 <rect x="416" y="617" width="60" height="50" rx="5" ry="5" />
 <text x="446" y="642">f6</text>
 <rect x="480" y="617" width="60" height="50" rx="5" ry="5" />
 <text x="510" y="642"></text>
 <rect x="544" y="617" width="60" height="50" rx="5" ry="5" />
 <text x="574" y="642"></text>
 <rect x="608" y="617" width="60" height="50" rx="5" ry="5" />
 <text x="638" y="642"></text>
 <rect x="672" y="617" width="60" height="50" rx="5" ry="5" />
 <text x="702" y="642"></text>
 <rect x="736" y="617" width="60" height="50" rx="5" ry="5" />
 <text x="766" y="642">&#168;</text>
 <rect x="32" y="671" width="60" height="50" rx="5" ry="5" />
 <text x="62" y="696">shift</text>
 <rect x="96" y="671" width="60" height="50" rx="5" ry="5" />
 <text x="126" y="696">f7</text>
 <rect x="160" y="671" width="60" height="50" rx="5" ry="5" />
 <text x="190" y="696">f8</text>
 <rect x="224" y="671" width="60" height="50" rx="5" ry="5" />
 <text x="254" y="696">f9</text>
 <rect x="288" y="671" width="60" height="50" rx="5" ry="5" />
 <text x="318" y="696">f10</text>
 <rect x="352" y="671" width="60" height="50" rx="5" ry="5" />
 <text x="382" y="696">f11</text>
 <rect x="416" y="671" width="60" height="50" rx="5" ry="5" />
 <text x="446" y="696">f12</text>
 <rect x="480" y="671" width="60" height="50" rx="5" ry="5" />
 <text x="510" y="696"></text>
 <rect x="544" y="671" width="60" height="50" rx="5" ry="5" />
 <text x="574" y="696">,</text>
 <rect x="608" y="671" width="60" height="50" rx="5" ry="5" />
 <text x="638" y="696">.</text>
 <rect x="672" y="671" width="60" height="50" rx="5" ry="5" />
 <text x="702" y="696">vol+</text>
 <rect x="736" y="671" width="60" height="50" rx="5" ry="5" />
 <text x="766" y="696">enter</text>
 <rect x="32" y="725" width="60" height="50" rx="5" ry="5" />
 <text x="62" y="750">fn</text>
 <rect x="96" y="725" width="60" height="50" rx="5" ry="5" />
 <text x="126" y="750">ctrl</text>
 <rect x="160" y="725" width="60" height="50" rx="5" ry="5" />
 <text x="190" y="750">alt</text>
 <rect x="224" y="725" width="60" height="50" rx="5" ry="5" />
 <text x="254" y="750">gui</text>
 <rect x="288" y="725" width="60" height="50" rx="5" ry="5" />
 <text x="318" y="750">lower</text>
 <rect x="352" y="725" width="124" height="50" rx="5" ry="5" />
 <text x="414" y="750"></text>
 <rect x="480" y="725" width="60" height="50" class="hold" rx="5" ry="5" />
 <text x="510" y="750">raise</text>
 <rect x="544" y="725" width="60" height="50" rx="5" ry="5" />
 <text x="574" y="750"></text>
 <rect x="608" y="725" width="60" height="50" rx="5" ry="5" />
 <text x="638" y="750">next</text>
 <rect x="672" y="725" width="60" height="50" rx="5" ry="5" />
 <text x="702" y="750">vol-</text>
 <rect x="736" y="725" width="60" height="50" rx="5" ry="5" />
 <text x="766" y="750">play</text>
 
 <text x="32" y="802" class="layer">fn</text>
 <rect x="32" y="822" width="60" height="50" rx="5" ry="5" />
 <text x="62" y="847"></text>
 <rect x="96" y="822" width="60" height="50" rx="5" ry="5" />
 <text x="126" y="847"></text>
 <rect x="160" y="822" width="60" height="50" rx="5" ry="5" />
 <text x="190" y="847"></text>
 <rect x="224" y="822" width="60" height="50" rx="5" ry="5" />
 <text x="254" y="847"></text>
 <rect x="288" y="822" width="60" height="50" rx="5" ry="5" />
 <text x="318" y="847"></text>
 <rect x="352" y="822" width="60" height="50" rx="5" ry="5" />
 <text x="382" y="847"></text>
 <rect x="416" y="822" width="60" height="50" rx="5" ry="5" />
 <text x="446" y="847"></text>
 <rect x="480" y="822" width="60" height="50" rx="5" ry="5" />
 <text x="510" y="847"></text>
 <rect x="544" y="822" width="60" height="50" rx="5" ry="5" />
 <text x="574" y="847">ins</text>
 <rect x="608" y="822" width="60" height="50" rx="5" ry="5" />
 <text x="638" y="847"></text>
 <rect x="672" y="822" width="60" height="50" rx="5" ry="5" />
 <text x="702" y="847">prtsc</text>
 <rect x="736" y="822" width="60" height="50" rx="5" ry="5" />
 <text x="766" y="847">&#229;</text>
 <rect x="32" y="876" width="60" height="50" rx="5" ry="5" />
 <text x="62" y="901">del</text>
 <rect x="96" y="876" width="60" height="50" rx="5" ry="5" />
 <text x="126" y="901"></text>
 <rect x="160" y="876" width="60" height="50" rx="5" ry="5" />
 <text x="190" y="901"></text>
 <rect x="224" y="876" width="60" height="50" rx="5" ry="5" />
 <text x="254" y="901"></text>
 <rect x="288" y="876" width="60" height="50" rx="5" ry="5" />
 <text x="318" y="901"></text>
 <rect x="352" y="876" width="60" height="50" rx="5" ry="5" />
 <text x="382" y="901"></text>
 <rect x="416" y="876" width="60" height="50" rx="5" ry="5" />
 <text x="446" y="901"></text>
 <rect x="480" y="876" width="60" height="50" rx="5" ry="5" />
 <text x="510" y="901"></text>
 <rect x="544" y="876" width="60" height="50" rx="5" ry="5" />
 <text x="574" y="901"></text>
 <rect x="608" y="876" width="60" height="50" rx="5" ry="5" />
 <text x="638" y="901"></text>
 <rect x="672" y="876" width="60" height="50" rx="5" ry="5" />
 <text x="702" y="901">&#230;</text>
 <rect x="736" y="876" width="60" height="50" rx="5" ry="5" />
 <text x="766" y="901">&#248;</text>
 <rect x="32" y="930" width="60" height="50" rx="5" ry="5" />
 <text x="62" y="955">shift</text>
 <rect x="96" y="930" width="60" height="50" rx="5" ry="5" />
 <text x="126" y="955"></text>
 <rect x="160" y="930" width="60" height="50" rx="5" ry="5" />
 <text x="190" y="955"></text>
 <rect x="224" y="930" width="60" height="50" rx="5" ry="5" />
 <text x="254" y="955"></text>
 <rect x="288" y="930" width="60" height="50" rx="5" ry="5" />
 <text x="318" y="955"></text>
 <rect x="352" y="930" width="60" height="50" rx="5" ry="5" />
 <text x="382" y="955"></text>
 <rect x="416" y="930" width="60" height="50" rx="5" ry="5" />
 <text x="446" y="955"></text>
 <rect x="480" y="930" width="60" height="50" rx="5" ry="5" />
 <text x="510" y="955"></text>
 <rect x="544" y="930" width="60" height="50" rx="5" ry="5" />
 <text x="574" y="955"></text>
 <rect x="608" y="930" width="60" height="50" rx="5" ry="5" />
 <text x="638" y="955"></text>
 <rect x="672" y="930" width="60" height="50" rx="5" ry="5" />
 <text x="702" y="955">pgup</text>
 <rect x="736" y="930" width="60" height="50" rx="5" ry="5" />
 <text x="766" y="955">del</text>
 <rect x="32" y="984" width="60" height="50" class="hold" rx="5" ry="5" />
 <text x="62" y="1009">fn</text>
 <rect x="96" y="984" width="60" height="50" rx="5" ry="5" />
 <text x="126" y="1009">ctrl</text>
 <rect x="160" y="984" width="60" height="50" rx="5" ry="5" />
 <text x="190" y="1009">alt</text>
 <rect x="224" y="984" width="60" height="50" rx="5" ry="5" />
 <text x="254" y="1009">gui</text>
 <rect x="288" y="984" width="60" height="50" rx="5" ry="5" />
 <text x="318" y="1009">lower</text>
 <rect x="352" y="984" width="124" height="50" rx="5" ry="5" />
 <text x="414" y="1009"></text>
 <rect x="480" y="984" width="60" height="50" rx="5" ry="5" />
 <text x="510" y="1009">raise</text>
 <rect x="544" y="984" width="60" height="50" rx="5" ry="5" />
 <text x="574" y="1009"></text>
 <rect x="608" y="984" width="60" height="50" rx="5" ry="5" />
 <text x="638" y="1009">home</text>
 <rect x="672" y="984" width="60" height="50" rx="5" ry="5" />
 <text x="702" y="1009">pgdn</text>
 <rect x="736" y="984" width="60" height="50" rx="5" ry="5" />
 <text x="766" y="1009">end</text>
 
</svg>

