<svg width="730" height="1061" viewBox="0 0 730 1061" xmlns="http://www.w3.org/2000/svg">
<style>
svg {
    font-family: SFMono-Regular,Consolas,Liberation Mono,Menlo,monospace;
    font-size: 14px;
    font-kerning: normal;
    text-rendering: optimizeLegibility;
}
rect {
    fill: #F9F9FC;
}
text {
    fill: #403d39;
    text-anchor: middle;
    dominant-baseline: middle;
}
.hold {
    fill: #D7ECFE;
}
.layer {
    fill: #403d39;
    text-anchor: start;
    dominant-baseline: hanging;
    font-weight: bold;
    font-size: 18px;
}
</style>
<text x="32" y="25" class="layer">qwerty</text>
 <rect x="32" y="45" width="60" height="50" rx="5" ry="5" />
 <text x="62" y="70">q</text>
 <rect x="96" y="45" width="60" height="50" rx="5" ry="5" />
 <text x="126" y="70">w</text>
 <rect x="160" y="45" width="60" height="50" rx="5" ry="5" />
 <text x="190" y="70">e</text>
 <rect x="224" y="45" width="60" height="50" rx="5" ry="5" />
 <text x="254" y="70">r</text>
 <rect x="288" y="45" width="60" height="50" rx="5" ry="5" />
 <text x="318" y="70">t</text>
 <rect x="32" y="99" width="60" height="50" rx="5" ry="5" />
 <text x="62" y="124">a</text>
 <rect x="96" y="99" width="60" height="50" rx="5" ry="5" />
 <text x="126" y="124">s</text>
 <rect x="160" y="99" width="60" height="50" rx="5" ry="5" />
 <text x="190" y="124">d</text>
 <rect x="224" y="99" width="60" height="50" rx="5" ry="5" />
 <text x="254" y="124">f</text>
 <rect x="288" y="99" width="60" height="50" rx="5" ry="5" />
 <text x="318" y="124">g</text>
 <rect x="32" y="153" width="60" height="50" rx="5" ry="5" />
 <text x="62" y="178">z</text>
 <rect x="96" y="153" width="60" height="50" rx="5" ry="5" />
 <text x="126" y="178">x</text>
 <rect x="160" y="153" width="60" height="50" rx="5" ry="5" />
 <text x="190" y="178">c</text>
 <rect x="224" y="153" width="60" height="50" rx="5" ry="5" />
 <text x="254" y="178">v</text>
 <rect x="288" y="153" width="60" height="50" rx="5" ry="5" />
 <text x="318" y="178">b</text>
 <rect x="382" y="45" width="60" height="50" rx="5" ry="5" />
 <text x="412" y="70">y</text>
 <rect x="446" y="45" width="60" height="50" rx="5" ry="5" />
 <text x="476" y="70">u</text>
 <rect x="510" y="45" width="60" height="50" rx="5" ry="5" />
 <text x="540" y="70">i</text>
 <rect x="574" y="45" width="60" height="50" rx="5" ry="5" />
 <text x="604" y="70">o</text>
 <rect x="638" y="45" width="60" height="50" rx="5" ry="5" />
 <text x="668" y="70">p</text>
 <rect x="382" y="99" width="60" height="50" rx="5" ry="5" />
 <text x="412" y="124">h</text>
 <rect x="446" y="99" width="60" height="50" rx="5" ry="5" />
 <text x="476" y="124">j</text>
 <rect x="510" y="99" width="60" height="50" rx="5" ry="5" />
 <text x="540" y="124">k</text>
 <rect x="574" y="99" width="60" height="50" rx="5" ry="5" />
 <text x="604" y="124">l</text>
 <rect x="638" y="99" width="60" height="50" rx="5" ry="5" />
 <text x="668" y="124">;</text>
 <rect x="382" y="153" width="60" height="50" rx="5" ry="5" />
 <text x="412" y="178">n</text>
 <rect x="446" y="153" width="60" height="50" rx="5" ry="5" />
 <text x="476" y="178">m</text>
 <rect x="510" y="153" width="60" height="50" rx="5" ry="5" />
 <text x="540" y="178">,</text>
 <rect x="574" y="153" width="60" height="50" rx="5" ry="5" />
 <text x="604" y="178">.</text>
 <rect x="638" y="153" width="60" height="50" rx="5" ry="5" />
 <text x="668" y="178">/</text>
 <rect x="224" y="207" width="60" height="50" rx="5" ry="5" />
 <text x="254" y="232">nav</text>
 <rect x="288" y="207" width="60" height="50" rx="5" ry="5" />
 <text x="318" y="232">shift</text>
 <rect x="382" y="207" width="60" height="50" rx="5" ry="5" />
 <text x="412" y="232">space</text>
 <rect x="446" y="207" width="60" height="50" rx="5" ry="5" />
 <text x="476" y="232">sym</text>
 
 <text x="32" y="284" class="layer">sym</text>
 <rect x="32" y="304" width="60" height="50" rx="5" ry="5" />
 <text x="62" y="329">!</text>
 <rect x="96" y="304" width="60" height="50" rx="5" ry="5" />
 <text x="126" y="329">@</text>
 <rect x="160" y="304" width="60" height="50" rx="5" ry="5" />
 <text x="190" y="329">#</text>
 <rect x="224" y="304" width="60" height="50" rx="5" ry="5" />
 <text x="254" y="329">$</text>
 <rect x="288" y="304" width="60" height="50" rx="5" ry="5" />
 <text x="318" y="329">%</text>
 <rect x="32" y="358" width="60" height="50" rx="5" ry="5" />
 <text x="62" y="383">&amp;</text>
 <rect x="96" y="358" width="60" height="50" rx="5" ry="5" />
 <text x="126" y="383">*</text>
 <rect x="160" y="358" width="60" height="50" rx="5" ry="5" />
 <text x="190" y="383">_</text>
 <rect x="224" y="358" width="60" height="50" rx="5" ry="5" />
 <text x="254" y="383">&#39;</text>
 <rect x="288" y="358" width="60" height="50" rx="5" ry="5" />
 <text x="318" y="383">&quot;</text>
 <rect x="32" y="412" width="60" height="50" rx="5" ry="5" />
 <text x="62" y="437">|</text>
 <rect x="96" y="412" width="60" height="50" rx="5" ry="5" />
 <text x="126" y="437">+</text>
 <rect x="160" y="412" width="60" height="50" rx="5" ry="5" />
 <text x="190" y="437">-</text>
 <rect x="224" y="412" width="60" height="50" rx="5" ry="5" />
 <text x="254" y="437">=</text>
 <rect x="288" y="412" width="60" height="50" rx="5" ry="5" />
 <text x="318" y="437">\</text>
 <rect x="382" y="304" width="60" height="50" rx="5" ry="5" />
 <text x="412" y="329">(</text>
 <rect x="446" y="304" width="60" height="50" rx="5" ry="5" />
 <text x="476" y="329">)</text>
 <rect x="510" y="304" width="60" height="50" rx="5" ry="5" />
 <text x="540" y="329">^</text>
 <rect x="574" y="304" width="60" height="50" rx="5" ry="5" />
 <text x="604" y="329"></text>
 <rect x="638" y="304" width="60" height="50" rx="5" ry="5" />
 <text x="668" y="329">~</text>
 <rect x="382" y="358" width="60" height="50" rx="5" ry="5" />
 <text x="412" y="383">{</text>
 <rect x="446" y="358" width="60" height="50" rx="5" ry="5" />
 <text x="476" y="383">}</text>
 <rect x="510" y="358" width="60" height="50" rx="5" ry="5" />
 <text x="540" y="383">&#168;</text>
 <rect x="574" y="358" width="60" height="50" rx="5" ry="5" />
 <text x="604" y="383">&#180;</text>
 <rect x="638" y="358" width="60" height="50" rx="5" ry="5" />
 <text x="668" y="383">`</text>
 <rect x="382" y="412" width="60" height="50" rx="5" ry="5" />
 <text x="412" y="437">[</text>
 <rect x="446" y="412" width="60" height="50" rx="5" ry="5" />
 <text x="476" y="437">]</text>
 <rect x="510" y="412" width="60" height="50" rx="5" ry="5" />
 <text x="540" y="437">&#230;</text>
 <rect x="574" y="412" width="60" height="50" rx="5" ry="5" />
 <text x="604" y="437">&#248;</text>
 <rect x="638" y="412" width="60" height="50" rx="5" ry="5" />
 <text x="668" y="437">&#229;</text>
 <rect x="224" y="466" width="60" height="50" rx="5" ry="5" />
 <text x="254" y="491">num</text>
 <rect x="288" y="466" width="60" height="50" rx="5" ry="5" />
 <text x="318" y="491">shift</text>
 <rect x="382" y="466" width="60" height="50" rx="5" ry="5" />
 <text x="412" y="491">space</text>
 <rect x="446" y="466" width="60" height="50" class="hold" rx="5" ry="5" />
 <text x="476" y="491">sym</text>
 
 <text x="32" y="543" class="layer">nav</text>
 <rect x="32" y="563" width="60" height="50" rx="5" ry="5" />
 <text x="62" y="588">tab</text>
 <rect x="96" y="563" width="60" height="50" rx="5" ry="5" />
 <text x="126" y="588"></text>
 <rect x="160" y="563" width="60" height="50" rx="5" ry="5" />
 <text x="190" y="588"></text>
 <rect x="224" y="563" width="60" height="50" rx="5" ry="5" />
 <text x="254" y="588">repeat</text>
 <rect x="288" y="563" width="60" height="50" rx="5" ry="5" />
 <text x="318" y="588"></text>
 <rect x="32" y="617" width="60" height="50" rx="5" ry="5" />
 <text x="62" y="642">shift</text>
 <rect x="96" y="617" width="60" height="50" rx="5" ry="5" />
 <text x="126" y="642">ctrl</text>
 <rect x="160" y="617" width="60" height="50" rx="5" ry="5" />
 <text x="190" y="642">alt</text>
 <rect x="224" y="617" width="60" height="50" rx="5" ry="5" />
 <text x="254" y="642">cmd</text>
 <rect x="288" y="617" width="60" height="50" rx="5" ry="5" />
 <text x="318" y="642">cancel</text>
 <rect x="32" y="671" width="60" height="50" rx="5" ry="5" />
 <text x="62" y="696">esc</text>
 <rect x="96" y="671" width="60" height="50" rx="5" ry="5" />
 <text x="126" y="696">cut</text>
 <rect x="160" y="671" width="60" height="50" rx="5" ry="5" />
 <text x="190" y="696">copy</text>
 <rect x="224" y="671" width="60" height="50" rx="5" ry="5" />
 <text x="254" y="696">paste</text>
 <rect x="288" y="671" width="60" height="50" rx="5" ry="5" />
 <text x="318" y="696"></text>
 <rect x="382" y="563" width="60" height="50" rx="5" ry="5" />
 <text x="412" y="588">pgup</text>
 <rect x="446" y="563" width="60" height="50" rx="5" ry="5" />
 <text x="476" y="588">home</text>
 <rect x="510" y="563" width="60" height="50" rx="5" ry="5" />
 <text x="540" y="588">↑</text>
 <rect x="574" y="563" width="60" height="50" rx="5" ry="5" />
 <text x="604" y="588">end</text>
 <rect x="638" y="563" width="60" height="50" rx="5" ry="5" />
 <text x="668" y="588">bksp</text>
 <rect x="382" y="617" width="60" height="50" rx="5" ry="5" />
 <text x="412" y="642">pgdn</text>
 <rect x="446" y="617" width="60" height="50" rx="5" ry="5" />
 <text x="476" y="642">←</text>
 <rect x="510" y="617" width="60" height="50" rx="5" ry="5" />
 <text x="540" y="642">↓</text>
 <rect x="574" y="617" width="60" height="50" rx="5" ry="5" />
 <text x="604" y="642">→</text>
 <rect x="638" y="617" width="60" height="50" rx="5" ry="5" />
 <text x="668" y="642">del</text>
 <rect x="382" y="671" width="60" height="50" rx="5" ry="5" />
 <text x="412" y="696">insert</text>
 <rect x="446" y="671" width="60" height="50" rx="5" ry="5" />
 <text x="476" y="688">print</text>
 <text x="476" y="704">screen</text>
 <rect x="510" y="671" width="60" height="50" rx="5" ry="5" />
 <text x="540" y="696"></text>
 <rect x="574" y="671" width="60" height="50" rx="5" ry="5" />
 <text x="604" y="696"></text>
 <rect x="638" y="671" width="60" height="50" rx="5" ry="5" />
 <text x="668" y="696">enter</text>
 <rect x="224" y="725" width="60" height="50" class="hold" rx="5" ry="5" />
 <text x="254" y="750">nav</text>
 <rect x="288" y="725" width="60" height="50" rx="5" ry="5" />
 <text x="318" y="750">shift</text>
 <rect x="382" y="725" width="60" height="50" rx="5" ry="5" />
 <text x="412" y="750">space</text>
 <rect x="446" y="725" width="60" height="50" rx="5" ry="5" />
 <text x="476" y="750">num</text>
 
 <text x="32" y="802" class="layer">num</text>
 <rect x="32" y="822" width="60" height="50" rx="5" ry="5" />
 <text x="62" y="847">tab</text>
 <rect x="96" y="822" width="60" height="50" rx="5" ry="5" />
 <text x="126" y="847">7</text>
 <rect x="160" y="822" width="60" height="50" rx="5" ry="5" />
 <text x="190" y="847">8</text>
 <rect x="224" y="822" width="60" height="50" rx="5" ry="5" />
 <text x="254" y="847">9</text>
 <rect x="288" y="822" width="60" height="50" rx="5" ry="5" />
 <text x="318" y="847"></text>
 <rect x="32" y="876" width="60" height="50" rx="5" ry="5" />
 <text x="62" y="901">,</text>
 <rect x="96" y="876" width="60" height="50" rx="5" ry="5" />
 <text x="126" y="901">4</text>
 <rect x="160" y="876" width="60" height="50" rx="5" ry="5" />
 <text x="190" y="901">5</text>
 <rect x="224" y="876" width="60" height="50" rx="5" ry="5" />
 <text x="254" y="901">6</text>
 <rect x="288" y="876" width="60" height="50" rx="5" ry="5" />
 <text x="318" y="901"></text>
 <rect x="32" y="930" width="60" height="50" rx="5" ry="5" />
 <text x="62" y="955">.</text>
 <rect x="96" y="930" width="60" height="50" rx="5" ry="5" />
 <text x="126" y="955">1</text>
 <rect x="160" y="930" width="60" height="50" rx="5" ry="5" />
 <text x="190" y="955">2</text>
 <rect x="224" y="930" width="60" height="50" rx="5" ry="5" />
 <text x="254" y="955">3</text>
 <rect x="288" y="930" width="60" height="50" rx="5" ry="5" />
 <text x="318" y="955">0</text>
 <rect x="382" y="822" width="60" height="50" rx="5" ry="5" />
 <text x="412" y="847">f1</text>
 <rect x="446" y="822" width="60" height="50" rx="5" ry="5" />
 <text x="476" y="847">f2</text>
 <rect x="510" y="822" width="60" height="50" rx="5" ry="5" />
 <text x="540" y="847">f3</text>
 <rect x="574" y="822" width="60" height="50" rx="5" ry="5" />
 <text x="604" y="847">f4</text>
 <rect x="638" y="822" width="60" height="50" rx="5" ry="5" />
 <text x="668" y="847">f5</text>
 <rect x="382" y="876" width="60" height="50" rx="5" ry="5" />
 <text x="412" y="901">f6</text>
 <rect x="446" y="876" width="60" height="50" rx="5" ry="5" />
 <text x="476" y="901">f7</text>
 <rect x="510" y="876" width="60" height="50" rx="5" ry="5" />
 <text x="540" y="901">f8</text>
 <rect x="574" y="876" width="60" height="50" rx="5" ry="5" />
 <text x="604" y="901">f9</text>
 <rect x="638" y="876" width="60" height="50" rx="5" ry="5" />
 <text x="668" y="901">f10</text>
 <rect x="382" y="930" width="60" height="50" rx="5" ry="5" />
 <text x="412" y="955">f11</text>
 <rect x="446" y="930" width="60" height="50" rx="5" ry="5" />
 <text x="476" y="955">f12</text>
 <rect x="510" y="930" width="60" height="50" rx="5" ry="5" />
 <text x="540" y="955"></text>
 <rect x="574" y="930" width="60" height="50" rx="5" ry="5" />
 <text x="604" y="947">OS</text>
 <text x="604" y="963">toggle</text>
 <rect x="638" y="930" width="60" height="50" rx="5" ry="5" />
 <text x="668" y="955">enter</text>
 <rect x="224" y="984" width="60" height="50" class="hold" rx="5" ry="5" />
 <text x="254" y="1009">num</text>
 <rect x="288" y="984" width="60" height="50" rx="5" ry="5" />
 <text x="318" y="1009">shift</text>
 <rect x="382" y="984" width="60" height="50" rx="5" ry="5" />
 <text x="412" y="1009">space</text>
 <rect x="446" y="984" width="60" height="50" class="hold" rx="5" ry="5" />
 <text x="476" y="1009">num</text>
 
</svg>

